<svg width="36" height="43" viewBox="0 0 36 43" fill="none" xmlns="http://www.w3.org/2000/svg">
<path d="M9.55635 17.4228V7.44219H18.3416C19.1785 7.44219 19.9852 7.51184 20.7621 7.65142C21.539 7.79073 22.2264 8.0396 22.8241 8.39832C23.4215 8.75704 23.8997 9.25507 24.2584 9.8924C24.6169 10.53 24.7964 11.3468 24.7964 12.3426C24.7964 14.1357 24.2584 15.4307 23.1825 16.2274C22.1069 17.0244 20.7323 17.4228 19.0588 17.4228H9.55635ZM0.173157 0.150757V42.8229H20.8518C22.7644 42.8229 24.6271 42.584 26.4399 42.1058C28.2528 41.6276 29.8664 40.8906 31.2809 39.8945C32.6951 38.8985 33.8209 37.6133 34.6575 36.0397C35.4944 34.4658 35.9126 32.6031 35.9126 30.4516C35.9126 27.782 35.2651 25.5011 33.9703 23.6086C32.6753 21.7159 30.7129 20.3911 28.0832 19.634C29.9958 18.7178 31.4403 17.5423 32.4165 16.1079C33.3925 14.6736 33.8806 12.8808 33.8806 10.7291C33.8806 8.73695 33.5519 7.06365 32.8945 5.70888C32.237 4.35438 31.3106 3.26858 30.1153 2.45175C28.9202 1.63492 27.4858 1.04715 25.8123 0.688701C24.139 0.32998 22.2862 0.150757 20.2541 0.150757H0.173157ZM9.55635 35.5315V23.8176H19.7759C21.808 23.8176 23.4416 24.2856 24.6769 25.2222C25.9119 26.1585 26.5297 27.7222 26.5297 29.9136C26.5297 31.0294 26.3403 31.9457 25.9617 32.6628C25.5832 33.38 25.0753 33.9479 24.4377 34.3661C23.8003 34.7846 23.0631 35.0833 22.2264 35.2628C21.3895 35.4417 20.5132 35.5315 19.5967 35.5315H9.55635Z" fill="white"/>
</svg>
