<svg width="36" height="26" viewBox="0 0 36 26" fill="none" xmlns="http://www.w3.org/2000/svg">
<path fill-rule="evenodd" clip-rule="evenodd" d="M36.1401 1.16014C36.2871 1.30678 36.4038 1.48099 36.4834 1.67278C36.5629 1.86458 36.6039 2.07018 36.6039 2.27783C36.6039 2.48548 36.5629 2.69109 36.4834 2.88288C36.4038 3.07467 36.2871 3.24888 36.1401 3.39552L14.0389 25.4968C13.8922 25.6438 13.718 25.7604 13.5262 25.84C13.3344 25.9196 13.1288 25.9606 12.9212 25.9606C12.7135 25.9606 12.5079 25.9196 12.3161 25.84C12.1243 25.7604 11.9501 25.6438 11.8035 25.4968L0.752879 14.4461C0.456449 14.1497 0.289917 13.7477 0.289917 13.3285C0.289917 12.9092 0.456449 12.5072 0.752879 12.2108C1.04931 11.9143 1.45136 11.7478 1.87057 11.7478C2.28979 11.7478 2.69183 11.9143 2.98826 12.2108L12.9212 22.1468L33.9047 1.16014C34.0514 1.01313 34.2256 0.896486 34.4174 0.816901C34.6092 0.737316 34.8148 0.69635 35.0224 0.69635C35.2301 0.69635 35.4357 0.737316 35.6275 0.816901C35.8193 0.896486 35.9935 1.01313 36.1401 1.16014Z" fill="white"/>
</svg>
