<svg width="45" height="32" viewBox="0 0 45 32" fill="none" xmlns="http://www.w3.org/2000/svg">
<path d="M27.4104 22.3373C27.9815 23.4973 28.8687 24.4722 29.9697 25.1498C31.0708 25.8274 32.341 26.18 33.6338 26.1671C36.2428 26.1671 37.9112 24.8626 37.9112 23.0554C37.9112 20.9012 36.1973 20.1304 33.325 18.8738L31.75 18.1988C27.2022 16.2624 24.1862 13.8376 24.1862 8.71055C24.1862 3.98797 27.7766 0.390393 33.4088 0.390393C35.232 0.258732 37.0536 0.666785 38.6465 1.56365C40.2393 2.46052 41.5328 3.8065 42.3656 5.43371L37.442 8.5813C37.1213 7.77447 36.5629 7.08418 35.8409 6.60198C35.1189 6.11978 34.2674 5.86845 33.3992 5.88132C33.0205 5.8434 32.6379 5.8848 32.2761 6.00288C31.9142 6.12095 31.5809 6.31312 31.2974 6.56713C31.0139 6.82114 30.7864 7.13142 30.6294 7.4782C30.4724 7.82498 30.3894 8.20066 30.3857 8.5813C30.3857 10.4699 31.5561 11.2358 34.2585 12.4111L35.8335 13.0861C41.1856 15.3815 44.2111 17.7201 44.2111 22.9788C44.2111 28.6493 39.7566 31.7562 33.775 31.7562C31.4444 31.9047 29.1205 31.3755 27.084 30.2326C25.0474 29.0896 23.3851 27.3817 22.2977 25.315L27.4104 22.3373ZM5.16189 22.8831C6.15044 24.6376 7.05044 26.1216 9.21426 26.1216C11.2823 26.1216 12.5892 25.3126 12.5892 22.165V0.749432H18.8868V22.2488C18.8868 28.7689 15.057 31.737 9.48234 31.737C7.51181 31.8447 5.5548 31.3536 3.86859 30.3283C2.18237 29.303 0.845875 27.7915 0.03479 25.9924L5.16189 22.8831Z" fill="black"/>
</svg>
