<svg width="15" height="10" viewBox="0 0 15 10" fill="none" xmlns="http://www.w3.org/2000/svg">
<path d="M14.894 1.28735C14.4761 1.77534 13.9677 2.19555 13.3691 2.54799C13.3691 2.6203 13.3691 2.72422 13.3691 2.85978C13.3691 3.51948 13.2504 4.17466 13.0132 4.82532C12.776 5.47598 12.4145 6.10405 11.9288 6.70951C11.4431 7.31499 10.8613 7.84366 10.1835 8.29551C9.50574 8.74736 8.69242 9.11786 7.74355 9.40705C6.79466 9.69623 5.77236 9.83178 4.67661 9.81372C2.97089 9.81372 1.41203 9.44772 0 8.71572C0.214628 8.7338 0.457496 8.74283 0.728605 8.74283C2.15193 8.74283 3.4171 8.39491 4.52412 7.69906C3.85766 7.69003 3.26461 7.52736 2.74498 7.21106C2.22535 6.89478 1.86387 6.49264 1.66054 6.00464C1.87517 6.03174 2.0672 6.0453 2.23664 6.0453C2.50776 6.0453 2.77887 6.0182 3.04997 5.96397C2.33832 5.84649 1.75091 5.56635 1.28777 5.12353C0.824623 4.68072 0.593049 4.1611 0.593049 3.56465V3.53754C1.0223 3.72732 1.48545 3.83125 1.98248 3.84933C1.56452 3.62341 1.23129 3.33422 0.98277 2.98178C0.734252 2.62933 0.609995 2.24075 0.609995 1.81601C0.609995 1.3732 0.751198 0.962014 1.0336 0.582463C1.80174 1.33253 2.72803 1.93348 3.81247 2.38533C4.89689 2.83718 6.0717 3.08569 7.33689 3.13089C7.28039 2.94111 7.25216 2.75585 7.25216 2.57511C7.25216 1.89733 7.55151 1.32349 8.15021 0.853572C8.74891 0.38365 9.46622 0.144171 10.3021 0.135134C11.1945 0.135134 11.9401 0.392686 12.5388 0.907792C13.2279 0.79935 13.8774 0.600537 14.4874 0.311355C14.2501 0.889719 13.7983 1.34157 13.1318 1.6669C13.7192 1.61268 14.3066 1.48616 14.894 1.28735Z" fill="black"/>
</svg>
