<svg width="61" height="61" viewBox="0 0 61 61" fill="none" xmlns="http://www.w3.org/2000/svg">
<path d="M30.4998 35.075C36.9569 35.075 42.1914 29.8404 42.1914 23.3833C42.1914 16.9262 36.9569 11.6917 30.4998 11.6917C24.0426 11.6917 18.8081 16.9262 18.8081 23.3833C18.8081 29.8404 24.0426 35.075 30.4998 35.075Z" fill="#6EB368" fill-opacity="0.84"/>
<mask id="mask0_23_454" style="mask-type:alpha" maskUnits="userSpaceOnUse" x="2" y="2" width="57" height="57">
<path d="M30.4999 58.9667C46.2216 58.9667 58.9665 46.2217 58.9665 30.5C58.9665 14.7783 46.2216 2.03333 30.4999 2.03333C14.7782 2.03333 2.0332 14.7783 2.0332 30.5C2.0332 46.2217 14.7782 58.9667 30.4999 58.9667Z" fill="black"/>
</mask>
<g mask="url(#mask0_23_454)">
<path d="M30.4999 76.7583C42.0104 76.7583 51.3415 67.4272 51.3415 55.9167C51.3415 44.4061 42.0104 35.075 30.4999 35.075C18.9893 35.075 9.6582 44.4061 9.6582 55.9167C9.6582 67.4272 18.9893 76.7583 30.4999 76.7583Z" fill="#2B6631"/>
</g>
</svg>
